<svg width="141" height="43" viewBox="0 0 141 43" fill="none" xmlns="http://www.w3.org/2000/svg">
<path d="M7.75 24.8125L1.65625 28.7812H1.46875C1.26042 28.7812 1.05208 28.7292 0.84375 28.625C0.65625 28.5208 0.5625 28.3438 0.5625 28.0938C0.5625 27.9271 0.604167 27.7812 0.6875 27.6562C0.791667 27.5104 0.916667 27.3854 1.0625 27.2812C1.22917 27.1562 1.53125 26.9688 1.96875 26.7188C2.40625 26.4688 2.86458 26.1979 3.34375 25.9062C3.82292 25.5938 4.28125 25.3125 4.71875 25.0625C5.17708 24.8125 5.48958 24.6354 5.65625 24.5312C5.73958 24.4479 5.86458 24.3542 6.03125 24.25C6.19792 24.125 6.34375 24.0104 6.46875 23.9062C6.61458 23.7812 6.73958 23.6771 6.84375 23.5938C6.94792 23.5104 7 23.4583 7 23.4375L4.59375 18.5625C4.48958 18.4167 4.42708 18.3021 4.40625 18.2188C4.40625 18.1146 4.40625 17.9792 4.40625 17.8125C4.40625 17.1875 4.70833 16.875 5.3125 16.875C5.39583 16.875 5.58333 16.9375 5.875 17.0625C6.1875 17.1667 6.5625 17.3229 7 17.5312C7.4375 17.7188 7.89583 17.9271 8.375 18.1562C8.85417 18.3854 9.29167 18.5938 9.6875 18.7812C10.0833 18.9688 10.4167 19.1354 10.6875 19.2812C10.9583 19.4062 11.0938 19.4688 11.0938 19.4688L13.875 16.5938C13.9375 16.3438 14.1146 16.0417 14.4062 15.6875C14.7188 15.3333 15.0417 14.9583 15.375 14.5625C15.7083 14.1667 16 13.7708 16.25 13.375C16.5 12.9583 16.625 12.5833 16.625 12.25V12.1562L14.4688 7.125C14.2604 6.64583 14.125 6.13542 14.0625 5.59375C14.0208 5.03125 14 4.47917 14 3.9375C14 3.47917 14.0729 3.02083 14.2188 2.5625C14.3646 2.08333 14.5729 1.65625 14.8438 1.28125C15.1354 0.90625 15.4792 0.604167 15.875 0.375C16.2708 0.125 16.7396 0 17.2812 0C17.8438 0 18.3021 0.166667 18.6562 0.5C19.0312 0.8125 19.3229 1.20833 19.5312 1.6875C19.7604 2.16667 19.9167 2.67708 20 3.21875C20.0833 3.73958 20.125 4.21875 20.125 4.65625C20.125 5.90625 19.9792 7.10417 19.6875 8.25C19.4167 9.375 19.0417 10.5312 18.5625 11.7188V12.1562C19.0417 13.0521 19.5312 13.9792 20.0312 14.9375C20.5312 15.8958 20.9792 16.8958 21.375 17.9375C21.7708 18.9583 22.0938 19.9896 22.3438 21.0312C22.5938 22.0521 22.7188 23.0833 22.7188 24.125C22.7188 24.9375 22.5833 25.6979 22.3125 26.4062C22.0625 27.0938 21.6979 27.6979 21.2188 28.2188C20.7396 28.7396 20.1562 29.1458 19.4688 29.4375C18.8021 29.7292 18.0521 29.875 17.2188 29.875C16.2812 29.875 15.3854 29.7396 14.5312 29.4688C13.6979 29.1771 12.8854 28.8021 12.0938 28.3438C11.3229 27.8646 10.5833 27.3229 9.875 26.7188C9.1875 26.1146 8.54167 25.4792 7.9375 24.8125H7.75ZM9.3125 23.75C9.3125 23.7708 9.36458 23.8438 9.46875 23.9688C9.59375 24.0938 9.72917 24.2396 9.875 24.4062C10.0417 24.5521 10.2083 24.7083 10.375 24.875C10.5417 25.0417 10.6875 25.1771 10.8125 25.2812C10.875 25.3438 10.9792 25.4375 11.125 25.5625C11.2917 25.6667 11.4479 25.7917 11.5938 25.9375C11.7604 26.0625 11.9062 26.1875 12.0312 26.3125C12.1771 26.4167 12.2708 26.4792 12.3125 26.5C12.4375 26.5625 12.625 26.6667 12.875 26.8125C13.125 26.9583 13.375 27.1042 13.625 27.25C13.875 27.3958 14.1146 27.5312 14.3438 27.6562C14.5729 27.7812 14.7083 27.8542 14.75 27.875C15.2292 28.0833 15.6667 28.2188 16.0625 28.2812C16.4792 28.3229 16.8958 28.3438 17.3125 28.3438C17.9375 28.3438 18.4688 28.2292 18.9062 28C19.3646 27.75 19.7396 27.4271 20.0312 27.0312C20.3229 26.6146 20.5312 26.1458 20.6562 25.625C20.8021 25.0833 20.875 24.5417 20.875 24C20.875 23.4167 20.8229 22.8125 20.7188 22.1875C20.6354 21.5625 20.4896 20.9688 20.2812 20.4062L17.5625 13.875L15.0938 17.3438L9.3125 23.625V23.75ZM6.875 19.625C6.875 19.6667 6.88542 19.75 6.90625 19.875C6.94792 19.9792 6.97917 20.0521 7 20.0938C7.08333 20.2396 7.1875 20.4375 7.3125 20.6875C7.45833 20.9375 7.59375 21.1771 7.71875 21.4062C7.86458 21.6146 7.97917 21.8125 8.0625 22C8.16667 22.1667 8.22917 22.25 8.25 22.25H8.375C8.4375 22.25 8.5625 22.1667 8.75 22C8.9375 21.8125 9.13542 21.625 9.34375 21.4375C9.55208 21.2292 9.73958 21.0417 9.90625 20.875C10.0729 20.6875 10.1667 20.5833 10.1875 20.5625L10.0312 20.4062L7.3125 19.625H6.875ZM15.6562 3.90625C15.6562 5.07292 15.8333 6.13542 16.1875 7.09375C16.5417 8.03125 16.9896 9.01042 17.5312 10.0312C17.6354 9.96875 17.7292 9.84375 17.8125 9.65625C17.8958 9.44792 17.9688 9.22917 18.0312 9C18.0938 8.75 18.1458 8.52083 18.1875 8.3125C18.2292 8.10417 18.2604 7.97917 18.2812 7.9375C18.2812 7.89583 18.2917 7.79167 18.3125 7.625C18.3542 7.45833 18.3854 7.27083 18.4062 7.0625C18.4271 6.83333 18.4479 6.61458 18.4688 6.40625C18.5104 6.19792 18.5417 6.04167 18.5625 5.9375V5.84375C18.5625 5.76042 18.5521 5.5 18.5312 5.0625C18.5312 4.625 18.5 4.15625 18.4375 3.65625C18.375 3.13542 18.2604 2.67708 18.0938 2.28125C17.9271 1.86458 17.6771 1.65625 17.3438 1.65625C17.0104 1.65625 16.7292 1.71875 16.5 1.84375C16.2708 1.96875 16.0938 2.13542 15.9688 2.34375C15.8646 2.55208 15.7812 2.79167 15.7188 3.0625C15.6771 3.33333 15.6562 3.61458 15.6562 3.90625ZM24.1562 29.0625C24.1562 29 24.1562 28.8438 24.1562 28.5938C24.1562 28.3438 24.1562 28.1771 24.1562 28.0938C23.8021 26.8438 23.75 25.6146 24 24.4062C24.2708 23.1979 24.7396 22.1146 25.4062 21.1562C26.0938 20.1771 26.9583 19.3646 28 18.7188C29.0625 18.0521 30.2188 17.6458 31.4688 17.5H32.0312C32.4896 17.5 32.8646 17.6042 33.1562 17.8125C33.4688 18 33.7083 18.25 33.875 18.5625C34.0625 18.875 34.1875 19.2292 34.25 19.625C34.3333 20.0208 34.375 20.4167 34.375 20.8125C34.375 21.3542 34.3125 21.8854 34.1875 22.4062C34.0833 22.9062 33.9583 23.4167 33.8125 23.9375C33.6875 24.4583 33.5625 24.9792 33.4375 25.5C33.3333 26 33.2812 26.5312 33.2812 27.0938V27.2812C33.3021 27.3229 33.3229 27.4479 33.3438 27.6562C33.3854 27.8438 33.4167 27.9583 33.4375 28C33.4792 28 33.5833 28.0104 33.75 28.0312C33.9167 28.0312 34.0208 28.0312 34.0625 28.0312C34.2708 28.0312 34.4688 28.0312 34.6562 28.0312C34.8646 28.0104 35.0729 27.9583 35.2812 27.875L41.2188 25.125C41.2396 25.125 41.2708 25.125 41.3125 25.125C41.375 25.1042 41.4167 25.0938 41.4375 25.0938C41.6458 25.0938 41.8125 25.1562 41.9375 25.2812C42.0833 25.4062 42.1562 25.5729 42.1562 25.7812C42.1562 25.8854 42.1458 25.9896 42.125 26.0938C42.125 26.1771 42.0729 26.2604 41.9688 26.3438C41.8229 26.4479 41.5521 26.5938 41.1562 26.7812C40.7812 26.9688 40.375 27.1771 39.9375 27.4062C39.5 27.6354 39.0833 27.8542 38.6875 28.0625C38.3125 28.2708 38.0417 28.4062 37.875 28.4688C37.5833 28.6354 37.2604 28.7917 36.9062 28.9375C36.5521 29.0625 36.1875 29.1875 35.8125 29.3125C35.4375 29.4375 35.0625 29.5417 34.6875 29.625C34.3333 29.6875 34.0104 29.7188 33.7188 29.7188C33.2604 29.7188 32.8854 29.6458 32.5938 29.5C32.3021 29.3333 32.0833 29.125 31.9375 28.875C31.7917 28.6042 31.6875 28.2917 31.625 27.9375C31.5833 27.5625 31.5833 27.1771 31.625 26.7812C31.2083 27.1146 30.7604 27.4688 30.2812 27.8438C29.8021 28.2188 29.3021 28.5625 28.7812 28.875C28.2604 29.1875 27.7292 29.4583 27.1875 29.6875C26.6458 29.9167 26.0938 30.0312 25.5312 30.0312C25.2188 30.0312 24.9375 29.9583 24.6875 29.8125C24.4375 29.6458 24.2604 29.3958 24.1562 29.0625ZM25.8438 28.4062C26.3229 28.4062 26.8542 28.2708 27.4375 28C28.0208 27.7083 28.5938 27.3542 29.1562 26.9375C29.7188 26.5208 30.2292 26.0833 30.6875 25.625C31.1458 25.1458 31.5 24.7188 31.75 24.3438C31.7708 23.7188 31.8542 23.125 32 22.5625C32.1667 21.9792 32.25 21.3854 32.25 20.7812C32.25 20.7396 32.2396 20.6771 32.2188 20.5938C32.2188 20.5104 32.2188 20.4479 32.2188 20.4062C31.9479 20.1771 31.7188 20.0417 31.5312 20C31.3438 19.9583 31.0938 19.9375 30.7812 19.9375C30.7396 19.9375 30.6458 19.9375 30.5 19.9375C30.375 19.9375 30.2917 19.9479 30.25 19.9688C30.125 20.0729 29.9167 20.2708 29.625 20.5625C29.3333 20.8333 29.0208 21.1354 28.6875 21.4688C28.375 21.8021 28.0729 22.1146 27.7812 22.4062C27.5104 22.6979 27.3229 22.8958 27.2188 23C27.1979 23 27.1562 23.0417 27.0938 23.125C27.0312 23.1875 26.9583 23.2708 26.875 23.375C26.8125 23.4792 26.75 23.5833 26.6875 23.6875C26.6458 23.7708 26.6146 23.8438 26.5938 23.9062L25.8438 27.5625V28.4062ZM41.0938 29.25C41.1562 28.7292 41.2396 28.2396 41.3438 27.7812C41.4479 27.3021 41.5625 26.8333 41.6875 26.375C41.8125 25.9167 41.9479 25.4479 42.0938 24.9688C42.2604 24.4688 42.4375 23.9062 42.625 23.2812V23.125C41.7917 23.6042 41.1979 23.8438 40.8438 23.8438C40.5104 23.8438 40.3438 23.7188 40.3438 23.4688C40.3229 23.2188 40.4271 22.8854 40.6562 22.4688C40.9062 22.0521 41.1979 21.6667 41.5312 21.3125C41.8854 20.9583 42.2396 20.6771 42.5938 20.4688C42.9688 20.2604 43.2604 20.2292 43.4688 20.375C43.7188 20.375 43.9167 20.4167 44.0625 20.5C44.2292 20.5833 44.4062 20.7083 44.5938 20.875C45.0729 20.5 45.5208 20.1979 45.9375 19.9688C46.3542 19.7396 46.8542 19.625 47.4375 19.625C48.3542 19.625 49.0417 19.8333 49.5 20.25C49.9792 20.6667 50.3229 21.3333 50.5312 22.25C50.8854 21.8958 51.2083 21.5729 51.5 21.2812C51.7917 20.9688 52.1042 20.7083 52.4375 20.5C52.7917 20.2708 53.1667 20.1042 53.5625 20C53.9583 19.875 54.4062 19.8125 54.9062 19.8125C55.3229 19.8125 55.7292 19.9688 56.125 20.2812C56.5208 20.5938 56.8021 20.9375 56.9688 21.3125C56.9688 21.3958 56.9688 21.5833 56.9688 21.875C56.9688 22.1667 56.9688 22.3646 56.9688 22.4688C56.9688 23.1771 56.8854 23.8646 56.7188 24.5312C56.5521 25.1771 56.4688 25.8438 56.4688 26.5312C56.4688 26.8229 56.5 27.125 56.5625 27.4375C56.6458 27.7292 56.875 27.875 57.25 27.875C57.75 27.875 58.1979 27.7708 58.5938 27.5625C59.0104 27.3542 59.3854 27.1042 59.7188 26.8125C60.0729 26.5 60.3854 26.1667 60.6562 25.8125C60.9479 25.4583 61.2083 25.1354 61.4375 24.8438C61.6875 24.5312 61.9167 24.2708 62.125 24.0625C62.3333 23.8542 62.5417 23.75 62.75 23.75C62.8958 23.75 63.0521 23.8125 63.2188 23.9375C63.4062 24.0417 63.5 24.1771 63.5 24.3438C63.5 24.3646 63.4896 24.3958 63.4688 24.4375C63.4688 24.4792 63.4688 24.5104 63.4688 24.5312C63.2604 25.1771 62.9583 25.7917 62.5625 26.375C62.1667 26.9583 61.7083 27.4792 61.1875 27.9375C60.6667 28.375 60.0833 28.7292 59.4375 29C58.8125 29.25 58.1458 29.375 57.4375 29.375C56.7708 29.375 56.2083 29.2917 55.75 29.125C55.2917 28.9375 54.9375 28.5208 54.6875 27.875C54.6875 27.8125 54.6771 27.6771 54.6562 27.4688C54.6562 27.2396 54.6562 27.1042 54.6562 27.0625C54.6562 26.2708 54.7292 25.5104 54.875 24.7812C55.0417 24.0521 55.125 23.3125 55.125 22.5625C55.125 22.5 55.1146 22.3646 55.0938 22.1562C55.0938 21.9479 55.0938 21.8125 55.0938 21.75C55.0104 21.6458 54.875 21.5938 54.6875 21.5938C54.5208 21.5938 54.3646 21.5938 54.2188 21.5938C53.7812 21.5938 53.3646 21.75 52.9688 22.0625C52.5729 22.375 52.2083 22.7708 51.875 23.25C51.5417 23.7292 51.2396 24.2708 50.9688 24.875C50.7188 25.4583 50.5 26.0521 50.3125 26.6562C50.125 27.2396 49.9688 27.7917 49.8438 28.3125C49.7396 28.8125 49.6771 29.2292 49.6562 29.5625L49.3125 29.875H48.25C48.0625 29.875 47.9583 29.7812 47.9375 29.5938C47.9375 29.3854 47.9375 29.2292 47.9375 29.125C47.9375 28.625 47.9688 28.125 48.0312 27.625C48.1146 27.1042 48.1979 26.5938 48.2812 26.0938C48.3854 25.5729 48.4792 25.0521 48.5625 24.5312C48.6458 24.0104 48.6979 23.5 48.7188 23C48.6979 22.8333 48.6771 22.6562 48.6562 22.4688C48.6354 22.2604 48.5938 22.0729 48.5312 21.9062C48.4688 21.7396 48.375 21.6042 48.25 21.5C48.125 21.375 47.9479 21.3125 47.7188 21.3125C47.3854 21.3125 47.0625 21.375 46.75 21.5C46.4375 21.625 46.1458 21.7917 45.875 22C45.625 22.1875 45.3958 22.4271 45.1875 22.7188C45 22.9896 44.8646 23.2917 44.7812 23.625L42.9062 29.6875L42.625 30C42.625 30 42.5625 30 42.4375 30C42.3125 30.0208 42.2188 30.0312 42.1562 30.0312C41.9271 30.0312 41.6875 30.0104 41.4375 29.9688C41.2083 29.9062 41.0938 29.7083 41.0938 29.375V29.25ZM62.4062 28.2188C62.4062 27.4896 62.4896 26.7812 62.6562 26.0938C62.8229 25.4062 63.0521 24.7292 63.3438 24.0625C63.5312 23.3542 63.7396 22.6979 63.9688 22.0938C64.1979 21.4688 64.4271 20.9375 64.6562 20.5C64.9062 20.0417 65.1562 19.6875 65.4062 19.4375C65.6562 19.1667 65.9167 19.0312 66.1875 19.0312C66.4583 19.0312 66.6562 19.1146 66.7812 19.2812C66.9271 19.4271 67 19.6354 67 19.9062V20.0938L65.4688 23.75C65.4479 23.7917 65.3958 23.875 65.3125 24C65.2292 24.1042 65.1875 24.1771 65.1875 24.2188V24.3438C65.1458 24.4479 65.0833 24.6146 65 24.8438C64.9375 25.0729 64.8646 25.3229 64.7812 25.5938C64.6979 25.8438 64.6146 26.0833 64.5312 26.3125C64.4688 26.5417 64.4271 26.6979 64.4062 26.7812C64.3646 26.8854 64.3333 27.0521 64.3125 27.2812C64.2917 27.5104 64.2812 27.6562 64.2812 27.7188C64.2812 27.7604 64.2917 27.8438 64.3125 27.9688C64.3333 28.0729 64.3646 28.1458 64.4062 28.1875C65.1979 27.875 66.0417 27.4062 66.9375 26.7812C67.8542 26.1354 68.7292 25.4167 69.5625 24.625C70.3958 23.8333 71.1354 23.0104 71.7812 22.1562C72.4479 21.2812 72.9375 20.4375 73.25 19.625C73.2917 19.6042 73.3958 19.5729 73.5625 19.5312C73.7292 19.4896 73.8333 19.4688 73.875 19.4688C73.8958 19.4688 73.9167 19.4688 73.9375 19.4688C73.9792 19.4688 74.0104 19.4688 74.0312 19.4688C74.2396 19.4688 74.4167 19.5625 74.5625 19.75C74.7292 19.9375 74.8125 20.125 74.8125 20.3125C74.8125 20.3333 74.8021 20.375 74.7812 20.4375C74.7812 20.5 74.7812 20.5417 74.7812 20.5625C74.4062 21.4583 74.0833 22.3125 73.8125 23.125C73.5417 23.9375 73.4062 24.8125 73.4062 25.75C73.4062 26.1458 73.4167 26.4688 73.4375 26.7188C73.4792 26.9479 73.5729 27.2812 73.7188 27.7188C73.7396 27.8229 73.7812 27.875 73.8438 27.875C73.9271 27.875 74 27.875 74.0625 27.875C74.6875 27.875 75.3125 27.6354 75.9375 27.1562C76.5625 26.6771 77.125 26.0938 77.625 25.4062C78.1458 24.6979 78.5625 23.9583 78.875 23.1875C79.1875 22.4167 79.3438 21.7396 79.3438 21.1562C79.3438 20.8438 79.3125 20.5521 79.25 20.2812C79.2083 19.9896 79.1875 19.6979 79.1875 19.4062C79.1875 19.1354 79.2604 18.8958 79.4062 18.6875C79.5521 18.4792 79.7604 18.375 80.0312 18.375C80.2188 18.375 80.3958 18.4375 80.5625 18.5625C80.7292 18.6667 80.8854 18.7917 81.0312 18.9375C81.1979 19.0833 81.3646 19.2188 81.5312 19.3438C81.6979 19.4688 81.8854 19.5625 82.0938 19.625C82.5938 19.625 82.9792 19.625 83.25 19.625C83.5417 19.625 83.7604 19.625 83.9062 19.625C84.0729 19.625 84.2083 19.6146 84.3125 19.5938C84.4167 19.5521 84.5417 19.5 84.6875 19.4375C84.8333 19.3542 85.0312 19.25 85.2812 19.125C85.5521 19 85.9062 18.8333 86.3438 18.625C86.3646 18.6042 86.4062 18.5938 86.4688 18.5938C86.5312 18.5938 86.5729 18.5938 86.5938 18.5938C86.7812 18.5938 86.9479 18.6562 87.0938 18.7812C87.2396 18.9062 87.3125 19.0729 87.3125 19.2812C87.3125 19.5104 87.25 19.6979 87.125 19.8438C87.0208 19.9688 86.8854 20.0833 86.7188 20.1875C86.5521 20.2708 86.3646 20.3542 86.1562 20.4375C85.9688 20.5 85.7917 20.5521 85.625 20.5938C85.1458 20.7812 84.7708 20.9167 84.5 21C84.25 21.0625 84.0521 21.1146 83.9062 21.1562C83.7812 21.1771 83.6771 21.1979 83.5938 21.2188C83.5104 21.2188 83.3854 21.2188 83.2188 21.2188C83.0729 21.2188 82.8646 21.2292 82.5938 21.25C82.3438 21.25 81.9792 21.2708 81.5 21.3125C81.4583 21.3125 81.3958 21.3333 81.3125 21.375C81.25 21.4167 81.2083 21.4479 81.1875 21.4688C81.0625 22.4062 80.7708 23.3646 80.3125 24.3438C79.875 25.3021 79.3021 26.1875 78.5938 27C77.8854 27.7917 77.0625 28.4375 76.125 28.9375C75.2083 29.4375 74.25 29.6875 73.25 29.6875C73.0417 29.6875 72.8438 29.6042 72.6562 29.4375C72.4896 29.25 72.3333 29.0417 72.1875 28.8125C72.0625 28.5833 71.9583 28.3542 71.875 28.125C71.7917 27.875 71.7396 27.6875 71.7188 27.5625C71.6979 27.4792 71.6667 27.3229 71.625 27.0938C71.6042 26.8646 71.5729 26.6146 71.5312 26.3438C71.5104 26.0729 71.4792 25.8333 71.4375 25.625C71.4167 25.3958 71.4062 25.2292 71.4062 25.125C71.0312 25.5208 70.5417 26 69.9375 26.5625C69.3333 27.1042 68.6771 27.6354 67.9688 28.1562C67.2604 28.6562 66.5417 29.0938 65.8125 29.4688C65.1042 29.8229 64.4583 30 63.875 30C63.3333 30 62.9479 29.8125 62.7188 29.4375C62.5104 29.0625 62.4062 28.6562 62.4062 28.2188ZM86.3125 29.0625C86.3125 29 86.3125 28.8438 86.3125 28.5938C86.3125 28.3438 86.3125 28.1771 86.3125 28.0938C85.9583 26.8438 85.9062 25.6146 86.1562 24.4062C86.4271 23.1979 86.8958 22.1146 87.5625 21.1562C88.25 20.1771 89.1146 19.3646 90.1562 18.7188C91.2188 18.0521 92.375 17.6458 93.625 17.5H94.1875C94.6458 17.5 95.0208 17.6042 95.3125 17.8125C95.625 18 95.8646 18.25 96.0312 18.5625C96.2188 18.875 96.3438 19.2292 96.4062 19.625C96.4896 20.0208 96.5312 20.4167 96.5312 20.8125C96.5312 21.3542 96.4688 21.8854 96.3438 22.4062C96.2396 22.9062 96.1146 23.4167 95.9688 23.9375C95.8438 24.4583 95.7188 24.9792 95.5938 25.5C95.4896 26 95.4375 26.5312 95.4375 27.0938V27.2812C95.4583 27.3229 95.4792 27.4479 95.5 27.6562C95.5417 27.8438 95.5729 27.9583 95.5938 28C95.6354 28 95.7396 28.0104 95.9062 28.0312C96.0729 28.0312 96.1771 28.0312 96.2188 28.0312C96.4271 28.0312 96.625 28.0312 96.8125 28.0312C97.0208 28.0104 97.2292 27.9583 97.4375 27.875L103.375 25.125C103.396 25.125 103.427 25.125 103.469 25.125C103.531 25.1042 103.573 25.0938 103.594 25.0938C103.802 25.0938 103.969 25.1562 104.094 25.2812C104.24 25.4062 104.312 25.5729 104.312 25.7812C104.312 25.8854 104.302 25.9896 104.281 26.0938C104.281 26.1771 104.229 26.2604 104.125 26.3438C103.979 26.4479 103.708 26.5938 103.312 26.7812C102.938 26.9688 102.531 27.1771 102.094 27.4062C101.656 27.6354 101.24 27.8542 100.844 28.0625C100.469 28.2708 100.198 28.4062 100.031 28.4688C99.7396 28.6354 99.4167 28.7917 99.0625 28.9375C98.7083 29.0625 98.3438 29.1875 97.9688 29.3125C97.5938 29.4375 97.2188 29.5417 96.8438 29.625C96.4896 29.6875 96.1667 29.7188 95.875 29.7188C95.4167 29.7188 95.0417 29.6458 94.75 29.5C94.4583 29.3333 94.2396 29.125 94.0938 28.875C93.9479 28.6042 93.8438 28.2917 93.7812 27.9375C93.7396 27.5625 93.7396 27.1771 93.7812 26.7812C93.3646 27.1146 92.9167 27.4688 92.4375 27.8438C91.9583 28.2188 91.4583 28.5625 90.9375 28.875C90.4167 29.1875 89.8854 29.4583 89.3438 29.6875C88.8021 29.9167 88.25 30.0312 87.6875 30.0312C87.375 30.0312 87.0938 29.9583 86.8438 29.8125C86.5938 29.6458 86.4167 29.3958 86.3125 29.0625ZM88 28.4062C88.4792 28.4062 89.0104 28.2708 89.5938 28C90.1771 27.7083 90.75 27.3542 91.3125 26.9375C91.875 26.5208 92.3854 26.0833 92.8438 25.625C93.3021 25.1458 93.6562 24.7188 93.9062 24.3438C93.9271 23.7188 94.0104 23.125 94.1562 22.5625C94.3229 21.9792 94.4062 21.3854 94.4062 20.7812C94.4062 20.7396 94.3958 20.6771 94.375 20.5938C94.375 20.5104 94.375 20.4479 94.375 20.4062C94.1042 20.1771 93.875 20.0417 93.6875 20C93.5 19.9583 93.25 19.9375 92.9375 19.9375C92.8958 19.9375 92.8021 19.9375 92.6562 19.9375C92.5312 19.9375 92.4479 19.9479 92.4062 19.9688C92.2812 20.0729 92.0729 20.2708 91.7812 20.5625C91.4896 20.8333 91.1771 21.1354 90.8438 21.4688C90.5312 21.8021 90.2292 22.1146 89.9375 22.4062C89.6667 22.6979 89.4792 22.8958 89.375 23C89.3542 23 89.3125 23.0417 89.25 23.125C89.1875 23.1875 89.1146 23.2708 89.0312 23.375C88.9688 23.4792 88.9062 23.5833 88.8438 23.6875C88.8021 23.7708 88.7708 23.8438 88.75 23.9062L88 27.5625V28.4062ZM101.625 37.875C101.625 36.5208 101.927 35.2708 102.531 34.125C103.115 33 103.865 31.9688 104.781 31.0312C105.719 30.1146 106.75 29.2917 107.875 28.5625C109.021 27.8333 110.135 27.1979 111.219 26.6562L112.125 23.75C112.021 23.875 111.812 24.0833 111.5 24.375C111.208 24.6667 110.896 24.9792 110.562 25.3125C110.229 25.625 109.906 25.9271 109.594 26.2188C109.281 26.4896 109.062 26.6771 108.938 26.7812C108.688 26.9896 108.385 27.2292 108.031 27.5C107.677 27.7708 107.292 28.0312 106.875 28.2812C106.479 28.5104 106.073 28.7083 105.656 28.875C105.24 29.0208 104.865 29.0938 104.531 29.0938C104.073 29.0938 103.771 28.9896 103.625 28.7812C103.5 28.5521 103.438 28.2292 103.438 27.8125C103.438 27.4792 103.458 27.1354 103.5 26.7812C103.562 26.4271 103.552 26.0729 103.469 25.7188L104.688 22.4062C104.875 22.2188 105.052 21.9271 105.219 21.5312C105.406 21.1354 105.583 20.7396 105.75 20.3438C105.938 19.9479 106.125 19.6042 106.312 19.3125C106.521 19.0208 106.74 18.875 106.969 18.875C107.219 18.875 107.427 18.9479 107.594 19.0938C107.781 19.2396 107.875 19.4479 107.875 19.7188C107.875 19.9271 107.844 20.1146 107.781 20.2812C107.74 20.4271 107.667 20.625 107.562 20.875C107.292 21.4375 107.021 21.9688 106.75 22.4688C106.5 22.9688 106.26 23.4688 106.031 23.9688C105.823 24.4688 105.646 24.9896 105.5 25.5312C105.375 26.0521 105.312 26.6354 105.312 27.2812H105.438C105.438 27.2812 105.5 27.25 105.625 27.1875C105.75 27.1042 105.885 27.0208 106.031 26.9375C106.198 26.8333 106.365 26.7292 106.531 26.625C106.698 26.5208 106.844 26.4271 106.969 26.3438C108.115 25.5938 109.125 24.7188 110 23.7188C110.875 22.6979 111.74 21.6458 112.594 20.5625C112.677 20.4375 112.75 20.3438 112.812 20.2812C112.875 20.2188 112.927 20.1771 112.969 20.1562C113.01 20.1146 113.062 20.0938 113.125 20.0938C113.188 20.0938 113.281 20.0938 113.406 20.0938C113.698 20.0938 113.927 20.1562 114.094 20.2812C114.281 20.3854 114.396 20.6354 114.438 21.0312C114.458 21.3021 114.438 21.6354 114.375 22.0312C114.312 22.4062 114.229 22.7812 114.125 23.1562C114.021 23.5312 113.906 23.9062 113.781 24.2812C113.677 24.6354 113.583 24.9167 113.5 25.125V25.5938C113.542 25.5729 113.635 25.5417 113.781 25.5C113.948 25.4583 114.062 25.4271 114.125 25.4062C114.25 25.3854 114.594 25.2708 115.156 25.0625C115.719 24.8542 116.323 24.6354 116.969 24.4062C117.635 24.1562 118.25 23.9271 118.812 23.7188C119.375 23.5104 119.729 23.375 119.875 23.3125H119.938C120.083 23.3125 120.208 23.3646 120.312 23.4688C120.438 23.5729 120.5 23.6979 120.5 23.8438C120.5 23.9896 120.448 24.1146 120.344 24.2188C120.26 24.3229 120.156 24.4167 120.031 24.5C119.906 24.5625 119.771 24.625 119.625 24.6875C119.479 24.75 119.354 24.8021 119.25 24.8438C119.104 24.9271 118.896 25.0312 118.625 25.1562C118.354 25.2604 118.042 25.3854 117.688 25.5312C117.354 25.6562 117 25.8021 116.625 25.9688C116.25 26.1354 115.885 26.2917 115.531 26.4375C114.677 26.7917 113.75 27.1667 112.75 27.5625L110 37.9375C109.875 38.4375 109.635 38.9583 109.281 39.5C108.948 40.0417 108.552 40.5417 108.094 41C107.635 41.4583 107.125 41.8229 106.562 42.0938C106.021 42.3854 105.469 42.5312 104.906 42.5312C104.323 42.5312 103.823 42.375 103.406 42.0625C102.99 41.7708 102.646 41.3854 102.375 40.9062C102.104 40.4479 101.917 39.9479 101.812 39.4062C101.688 38.8646 101.625 38.3542 101.625 37.875ZM103.312 37.875C103.312 38.1458 103.333 38.4479 103.375 38.7812C103.438 39.1146 103.542 39.4375 103.688 39.75C103.833 40.0625 104.01 40.3229 104.219 40.5312C104.448 40.7396 104.74 40.8438 105.094 40.8438C105.552 40.8438 105.969 40.6979 106.344 40.4062C106.74 40.1354 107.083 39.7917 107.375 39.375C107.688 38.9792 107.948 38.5521 108.156 38.0938C108.365 37.6354 108.531 37.2292 108.656 36.875C108.719 36.625 108.812 36.2708 108.938 35.8125C109.062 35.375 109.177 34.9375 109.281 34.5C109.406 34.0625 109.51 33.6667 109.594 33.3125C109.677 32.9792 109.719 32.7812 109.719 32.7188V32.5938L110.625 28.6562C109.792 28.9271 108.938 29.3854 108.062 30.0312C107.208 30.6771 106.427 31.4271 105.719 32.2812C105.01 33.1354 104.427 34.0521 103.969 35.0312C103.531 36.0104 103.312 36.9583 103.312 37.875ZM119.375 24.3438C119.375 24.3438 119.385 24.3333 119.406 24.3125C119.448 24.2708 119.479 24.2396 119.5 24.2188C119.542 24.0312 119.625 23.7083 119.75 23.25C119.875 22.7917 120.01 22.3021 120.156 21.7812C120.302 21.2396 120.438 20.7396 120.562 20.2812C120.708 19.8229 120.812 19.5104 120.875 19.3438C120.896 19.2604 120.958 19.0833 121.062 18.8125C121.188 18.5208 121.323 18.2083 121.469 17.875C121.615 17.5417 121.76 17.2083 121.906 16.875C122.052 16.5417 122.156 16.2917 122.219 16.125C122.365 15.8333 122.583 15.4479 122.875 14.9688C123.188 14.4896 123.531 14.0417 123.906 13.625C124.302 13.1875 124.708 12.8125 125.125 12.5C125.542 12.1667 125.927 12 126.281 12C126.469 12 126.615 12.0521 126.719 12.1562C126.844 12.2604 126.927 12.3854 126.969 12.5312C127.031 12.6562 127.073 12.8021 127.094 12.9688C127.115 13.1354 127.125 13.2812 127.125 13.4062C127.125 14.4896 126.969 15.5729 126.656 16.6562C126.365 17.7188 125.958 18.7396 125.438 19.7188C124.917 20.6979 124.292 21.625 123.562 22.5C122.854 23.3542 122.104 24.125 121.312 24.8125C121.292 24.875 121.26 25 121.219 25.1875C121.198 25.375 121.177 25.5104 121.156 25.5938V25.6562C121.156 26.0729 121.26 26.4062 121.469 26.6562C121.698 26.9062 121.969 27.0938 122.281 27.2188C122.594 27.3229 122.938 27.3958 123.312 27.4375C123.708 27.4792 124.083 27.5 124.438 27.5C124.625 27.5 124.896 27.4062 125.25 27.2188C125.625 27.0312 126 26.8229 126.375 26.5938C126.771 26.3438 127.156 26.125 127.531 25.9375C127.906 25.75 128.188 25.6562 128.375 25.6562C128.562 25.6562 128.708 25.7188 128.812 25.8438C128.917 25.9688 128.969 26.125 128.969 26.3125C128.969 26.625 128.729 26.9583 128.25 27.3125C127.771 27.6667 127.219 28 126.594 28.3125C125.969 28.6042 125.365 28.8542 124.781 29.0625C124.219 29.2708 123.844 29.375 123.656 29.375C123.031 29.5 122.448 29.5104 121.906 29.4062C121.365 29.2812 120.896 29.0833 120.5 28.8125C120.104 28.5208 119.771 28.1771 119.5 27.7812C119.25 27.3646 119.094 26.9375 119.031 26.5L119.375 24.3438ZM125.281 15.0312C125.094 15.0312 124.875 15.1875 124.625 15.5C124.396 15.7917 124.167 16.1354 123.938 16.5312C123.708 16.9271 123.5 17.3125 123.312 17.6875C123.146 18.0417 123.052 18.2812 123.031 18.4062C122.969 18.5521 122.875 18.7917 122.75 19.125C122.625 19.4583 122.5 19.8125 122.375 20.1875C122.25 20.5417 122.125 20.8854 122 21.2188C121.896 21.5521 121.823 21.7917 121.781 21.9375H121.938C121.938 21.9375 122 21.8646 122.125 21.7188C122.25 21.5521 122.385 21.3646 122.531 21.1562C122.698 20.9479 122.865 20.7396 123.031 20.5312C123.219 20.3021 123.354 20.1146 123.438 19.9688C123.521 19.8438 123.635 19.6562 123.781 19.4062C123.927 19.1354 124.021 18.9688 124.062 18.9062C124.146 18.6771 124.26 18.375 124.406 18C124.552 17.6042 124.688 17.2188 124.812 16.8438C124.938 16.4688 125.042 16.1458 125.125 15.875C125.229 15.5833 125.281 15.4167 125.281 15.375V15.0312ZM128.375 25.125C128.417 25 128.479 24.7812 128.562 24.4688C128.667 24.1354 128.76 23.7812 128.844 23.4062C128.948 23.0312 129.031 22.6771 129.094 22.3438C129.177 21.9896 129.24 21.75 129.281 21.625C129.406 21.125 129.552 20.5833 129.719 20C129.906 19.4167 130.156 18.875 130.469 18.375C130.781 17.875 131.177 17.4688 131.656 17.1562C132.156 16.8229 132.771 16.6562 133.5 16.6562C133.771 16.6562 133.958 16.7604 134.062 16.9688C134.188 17.1562 134.292 17.3646 134.375 17.5938C134.375 17.6771 134.375 17.8333 134.375 18.0625C134.396 18.2708 134.406 18.4167 134.406 18.5C134.406 19.3958 134.312 20.1875 134.125 20.875C133.958 21.5625 133.688 22.1979 133.312 22.7812C132.958 23.3646 132.521 23.9167 132 24.4375C131.479 24.9375 130.885 25.4688 130.219 26.0312C130.198 26.0938 130.167 26.1979 130.125 26.3438C130.083 26.4896 130.062 26.5938 130.062 26.6562V26.7188C130.062 27.0938 130.125 27.3958 130.25 27.625C130.375 27.8542 130.542 28.0417 130.75 28.1875C130.979 28.3125 131.229 28.3958 131.5 28.4375C131.792 28.4583 132.104 28.4688 132.438 28.4688C133.417 28.4688 134.354 28.3333 135.25 28.0625C136.146 27.7917 136.969 27.3542 137.719 26.75C137.823 26.6458 137.948 26.5 138.094 26.3125C138.26 26.1042 138.427 25.8958 138.594 25.6875C138.76 25.4792 138.938 25.3021 139.125 25.1562C139.312 24.9896 139.51 24.9062 139.719 24.9062C139.927 24.9062 140.052 24.9896 140.094 25.1562C140.135 25.3229 140.156 25.4896 140.156 25.6562C140.156 26.1146 140.01 26.5521 139.719 26.9688C139.448 27.3646 139.083 27.7292 138.625 28.0625C138.188 28.375 137.677 28.6562 137.094 28.9062C136.531 29.1562 135.969 29.3646 135.406 29.5312C134.844 29.6979 134.302 29.8229 133.781 29.9062C133.281 29.9896 132.854 30.0312 132.5 30.0312C131.396 30.0312 130.469 29.8542 129.719 29.5C128.99 29.125 128.49 28.3854 128.219 27.2812L128.375 25.125ZM132.844 18.9688C132.427 19.3438 132.094 19.6875 131.844 20C131.615 20.2917 131.427 20.6042 131.281 20.9375C131.156 21.25 131.042 21.5938 130.938 21.9688C130.854 22.3438 130.76 22.7812 130.656 23.2812C131.052 22.9688 131.375 22.6562 131.625 22.3438C131.896 22.0312 132.115 21.7083 132.281 21.375C132.448 21.0417 132.573 20.6875 132.656 20.3125C132.74 19.9167 132.802 19.4688 132.844 18.9688Z" fill="black"/>
</svg>
