<svg width="290" height="429" viewBox="0 0 290 429" fill="none" xmlns="http://www.w3.org/2000/svg">
<path d="M13.0825 54.4525H3L9.7217 43.693H25.5177M13.0825 54.4525L49.3797 90.7658L74.1624 219.954C74.6034 222.253 76.6144 223.915 78.9552 223.915V223.915M13.0825 54.4525L25.5177 43.693M78.9552 223.915V245.434M78.9552 223.915L110.211 223.679M78.9552 245.434V245.434C76.62 245.434 74.6191 247.104 74.2023 249.402L43.0547 421.108C42.4981 424.176 44.8558 427 47.9745 427H76.9387M78.9552 245.434H110.211M195.241 245.434H197.788C200.205 245.434 202.276 247.163 202.707 249.541L233.83 421.108C234.386 424.176 232.029 427 228.91 427H201.962M195.241 245.434V223.242M195.241 245.434H168.354M195.241 223.242H196.455C198.867 223.242 200.935 221.52 201.372 219.148L227.16 79.1868C227.36 78.1031 228.305 77.3165 229.407 77.3165H239.083C256.447 77.3165 270.524 91.3927 270.524 108.757V108.757C270.524 111.986 270.026 115.196 269.048 118.274L250.621 176.291C249.16 180.891 252.594 185.584 257.42 185.584V185.584C260.44 185.584 263.133 183.682 264.143 180.837L283.22 127.095C286.383 118.184 288 108.797 288 99.3408V89.2249C288 81.4211 285.964 73.7522 282.094 66.9759V66.9759C274.108 52.9946 259.242 44.3655 243.141 44.3655H234.226M195.241 223.242H168.354M234.226 44.3655L148.189 28.2263M234.226 44.3655L201.962 44.253M148.189 28.2263L151.336 7.75995C151.802 4.73126 149.458 2 146.394 2H129.295C126.18 2 123.824 4.81711 124.374 7.88294L128.024 28.2263M148.189 28.2263H128.024M128.024 28.2263L41.3137 43.693M41.3137 43.693L76.9387 43.8172M41.3137 43.693H25.5177M201.962 44.253L168.354 223.242M201.962 44.253L141.467 44.0422M168.354 223.242L141.467 223.444M141.467 223.444V44.0422M141.467 223.444L110.211 223.679M141.467 44.0422L76.9387 43.8172M76.9387 43.8172L110.211 223.679M110.211 245.434L76.9387 427M110.211 245.434H138.106M76.9387 427H138.106M138.106 427V245.434M138.106 427H201.962M138.106 245.434H168.354M168.354 245.434L201.962 427M11.066 45.7104H19.8856L11.066 53.1076L7.03302 52.4351L11.066 45.7104ZM11.066 45.7104L12.8129 47.2309L11.9596 48.9378L10.253 51.0713L12.4104 51.0902L16.226 46.8042M23.1651 54.4525C27.4222 60.5048 38.625 73.4161 49.3797 76.644M84.3326 240.726H107.858M116.597 240.726H121.302M130.04 240.726H153.566M167.009 240.726H175.075M180.453 240.726H182.469M78.9552 251.5L74.9222 274.5M48 422L54.5 391.5M53.5 422L58 399.5M81 268.5L77 289.5M54.5 90.7658L60 120.5M74.9222 193L78.9552 214M221 79.5L207.5 146.5M241.5 49C252.167 49.711 274.8 56.3696 280 77.3165M282 113.63L277 129M89.5 39.5C89.5 39.5 112.979 34.9289 128.024 32M114 39.5C114 39.5 117.352 38.8905 119.5 38.5M129 11.5C128.5 7.5 126 5 133 5.5M168.354 70.5918C172.387 70.5918 175.075 72.6092 175.075 76.644C175.075 80.6788 173.731 84.0411 169.026 84.0411C164.321 84.0411 161.632 83.3687 161.632 77.3165C161.632 72.6092 164.321 70.5918 168.354 70.5918Z" stroke="#444A4A" stroke-width="3"/>
</svg>
